<svg width="258" height="165" viewBox="0 0 258 165" fill="none" xmlns="http://www.w3.org/2000/svg">
<path d="M166.5 81.25V91.6667H101.917L91.5 81.25V33.3334L101.917 22.9167H120.667V33.3334H108.167L101.917 39.5834V75L108.167 81.25H166.5Z" fill="black"/>
<path d="M149.833 33.3334V22.9167H166.5V33.3334H149.833Z" fill="black"/>
<path d="M147.256 18.3646L144.178 21.3055V64.1112L147.256 67.0522H156.083V77.0834H142.472L138.375 73.0803L134.278 77.0834H120.667V67.0522H129.494L132.572 64.1112V21.3055L129.494 18.3646H120.667V8.33337H134.278L138.375 12.3364L142.472 8.33337H156.083V18.3646H147.256Z" fill="black"/>
<path d="M240.188 126.296H244.94V152H240.188V126.296Z" fill="black"/>
<path fill-rule="evenodd" clip-rule="evenodd" d="M218.343 148.256V137.816L222.051 134.072H232.347L236.055 137.816V148.256L232.347 152H222.051L218.343 148.256ZM231.303 146.78L230.043 148.04H224.355L223.095 146.78V139.292L224.355 138.032H230.043L231.303 139.292V146.78Z" fill="black"/>
<path d="M204.887 134.072H209.279V137.06L212.159 134.072H217.271V138.104H213.131L209.639 141.704V152H204.887V134.072Z" fill="black"/>
<path d="M191.6 148.328V138.068H188.36V134.072H191.672V128.24H196.352V134.072H201.824V138.104H196.352V146.78L197.576 147.968H201.824V152H195.308L191.6 148.328Z" fill="black"/>
<path d="M169.027 134.072H173.419V137.06L176.407 134.072H182.203L186.199 138.068V152H181.447V139.364L180.223 138.104H177.199L173.779 141.56V152H169.027V134.072Z" fill="black"/>
<path fill-rule="evenodd" clip-rule="evenodd" d="M147.363 148.256V137.816L151.07 134.072H161.367L165.074 137.816V148.256L161.367 152H151.07L147.363 148.256ZM160.322 146.78L159.062 148.04H153.374L152.115 146.78V139.292L153.374 138.032H159.062L160.322 139.292V146.78Z" fill="black"/>
<path d="M127.288 148.328V137.744L130.924 134.072H140.788L144.496 137.816V141.128H139.744V139.364L138.484 138.104H133.3L132.04 139.364V146.708L133.3 147.968H138.484L139.744 146.708V144.944H144.496V148.256L140.788 152H130.924L127.288 148.328Z" fill="black"/>
<path d="M111.389 140.696H124.061V144.8H111.389V140.696Z" fill="black"/>
<path d="M97.3788 134.072H101.771V137.06L104.651 134.072H109.763V138.104H105.623L102.131 141.704V152H97.3788V134.072Z" fill="black"/>
<path fill-rule="evenodd" clip-rule="evenodd" d="M76.0305 148.328V137.816L79.7385 134.072H89.8545L93.5985 137.816V144.62H80.7825V146.924L81.9345 148.112H87.8025L88.8825 146.996V146.06H93.5625V148.4L89.9985 152H79.6665L76.0305 148.328ZM88.8465 139.22V141.308H80.7825V139.22L82.0065 137.96H87.6225L88.8465 139.22Z" fill="black"/>
<path fill-rule="evenodd" clip-rule="evenodd" d="M54.3742 148.256V137.816L58.0822 134.072H65.2102L67.3342 135.908V126.296H72.0862V152H67.6222V149.228L64.8502 152H58.0822L54.3742 148.256ZM67.3342 144.98L64.4182 147.968H60.4942L59.1262 146.564V139.508L60.4942 138.104H64.8862L67.3342 140.3V144.98Z" fill="black"/>
<path d="M33.4295 134.072H37.8215V137.06L40.8095 134.072H46.6055L50.6015 138.068V152H45.8495V139.364L44.6255 138.104H41.6015L38.1815 141.56V152H33.4295V134.072Z" fill="black"/>
<path d="M11.98 148.22V134.072H16.732V146.744L17.956 147.968H20.836L24.364 144.44V134.072H29.116V152H24.724V148.94L21.628 152H15.76L11.98 148.22Z" fill="black"/>
<path fill-rule="evenodd" clip-rule="evenodd" d="M0 118L3 114H255L258 118V161L255 165H3L0 161V118ZM2 118.667V160.333L4 163H254L256 160.333V118.667L254 116H4L2 118.667Z" fill="black"/>
</svg>
