<svg width="258" height="165" viewBox="0 0 258 165" fill="none" xmlns="http://www.w3.org/2000/svg">
<path d="M166.5 81.25V91.6667H101.917L91.5 81.25V33.3334L101.917 22.9167H120.667V33.3334H108.167L101.917 39.5834V75L108.167 81.25H166.5Z" fill="url(#paint0_linear_14_431)"/>
<path d="M149.833 33.3334V22.9167H166.5V33.3334H149.833Z" fill="url(#paint1_linear_14_431)"/>
<path d="M147.256 18.3646L144.178 21.3055V64.1112L147.256 67.0522H156.083V77.0834H142.472L138.375 73.0803L134.278 77.0834H120.667V67.0522H129.494L132.572 64.1112V21.3055L129.494 18.3646H120.667V8.33337H134.278L138.375 12.3364L142.472 8.33337H156.083V18.3646H147.256Z" fill="url(#paint2_linear_14_431)"/>
<path d="M240.188 126.296H244.94V152H240.188V126.296Z" fill="url(#paint3_linear_14_431)"/>
<path fill-rule="evenodd" clip-rule="evenodd" d="M218.343 148.256V137.816L222.051 134.072H232.347L236.055 137.816V148.256L232.347 152H222.051L218.343 148.256ZM231.303 146.78L230.043 148.04H224.355L223.095 146.78V139.292L224.355 138.032H230.043L231.303 139.292V146.78Z" fill="url(#paint4_linear_14_431)"/>
<path d="M204.887 134.072H209.279V137.06L212.159 134.072H217.271V138.104H213.131L209.639 141.704V152H204.887V134.072Z" fill="url(#paint5_linear_14_431)"/>
<path d="M191.6 148.328V138.068H188.36V134.072H191.672V128.24H196.352V134.072H201.824V138.104H196.352V146.78L197.576 147.968H201.824V152H195.308L191.6 148.328Z" fill="url(#paint6_linear_14_431)"/>
<path d="M169.027 134.072H173.419V137.06L176.407 134.072H182.203L186.199 138.068V152H181.447V139.364L180.223 138.104H177.199L173.779 141.56V152H169.027V134.072Z" fill="url(#paint7_linear_14_431)"/>
<path fill-rule="evenodd" clip-rule="evenodd" d="M147.363 148.256V137.816L151.07 134.072H161.367L165.074 137.816V148.256L161.367 152H151.07L147.363 148.256ZM160.322 146.78L159.062 148.04H153.374L152.115 146.78V139.292L153.374 138.032H159.062L160.322 139.292V146.78Z" fill="url(#paint8_linear_14_431)"/>
<path d="M127.288 148.328V137.744L130.924 134.072H140.788L144.496 137.816V141.128H139.744V139.364L138.484 138.104H133.3L132.04 139.364V146.708L133.3 147.968H138.484L139.744 146.708V144.944H144.496V148.256L140.788 152H130.924L127.288 148.328Z" fill="url(#paint9_linear_14_431)"/>
<path d="M111.389 140.696H124.061V144.8H111.389V140.696Z" fill="url(#paint10_linear_14_431)"/>
<path d="M97.3788 134.072H101.771V137.06L104.651 134.072H109.763V138.104H105.623L102.131 141.704V152H97.3788V134.072Z" fill="url(#paint11_linear_14_431)"/>
<path fill-rule="evenodd" clip-rule="evenodd" d="M76.0305 148.328V137.816L79.7385 134.072H89.8545L93.5985 137.816V144.62H80.7825V146.924L81.9345 148.112H87.8025L88.8825 146.996V146.06H93.5625V148.4L89.9985 152H79.6665L76.0305 148.328ZM88.8465 139.22V141.308H80.7825V139.22L82.0065 137.96H87.6225L88.8465 139.22Z" fill="url(#paint12_linear_14_431)"/>
<path fill-rule="evenodd" clip-rule="evenodd" d="M54.3742 148.256V137.816L58.0822 134.072H65.2102L67.3342 135.908V126.296H72.0862V152H67.6222V149.228L64.8502 152H58.0822L54.3742 148.256ZM67.3342 144.98L64.4182 147.968H60.4942L59.1262 146.564V139.508L60.4942 138.104H64.8862L67.3342 140.3V144.98Z" fill="url(#paint13_linear_14_431)"/>
<path d="M33.4295 134.072H37.8215V137.06L40.8095 134.072H46.6055L50.6015 138.068V152H45.8495V139.364L44.6255 138.104H41.6015L38.1815 141.56V152H33.4295V134.072Z" fill="url(#paint14_linear_14_431)"/>
<path d="M11.98 148.22V134.072H16.732V146.744L17.956 147.968H20.836L24.364 144.44V134.072H29.116V152H24.724V148.94L21.628 152H15.76L11.98 148.22Z" fill="url(#paint15_linear_14_431)"/>
<path fill-rule="evenodd" clip-rule="evenodd" d="M0 118L3 114H255L258 118V161L255 165H3L0 161V118ZM2 118.667V160.333L4 163H254L256 160.333V118.667L254 116H4L2 118.667Z" fill="url(#paint16_linear_14_431)"/>
<path fill-rule="evenodd" clip-rule="evenodd" d="M2 160.333V118.667L4 116H254L256 118.667V160.333L254 163H4L2 160.333ZM11.98 134.072V148.22L15.76 152H21.628L24.724 148.94V152H29.116V134.072H24.364V144.44L20.836 147.968H17.956L16.732 146.744V134.072H11.98ZM37.8215 134.072H33.4295V152H38.1815V141.56L41.6015 138.104H44.6255L45.8495 139.364V152H50.6015V138.068L46.6055 134.072H40.8095L37.8215 137.06V134.072ZM54.3742 137.816V148.256L58.0822 152H64.8502L67.6222 149.228V152H72.0862V126.296H67.3342V135.908L65.2102 134.072H58.0822L54.3742 137.816ZM76.0305 137.816V148.328L79.6665 152H89.9985L93.5625 148.4V146.06H88.8825V146.996L87.8025 148.112H81.9345L80.7825 146.924V144.62H93.5985V137.816L89.8545 134.072H79.7385L76.0305 137.816ZM101.771 134.072H97.3788V152H102.131V141.704L105.623 138.104H109.763V134.072H104.651L101.771 137.06V134.072ZM124.061 140.696H111.389V144.8H124.061V140.696ZM127.288 137.744V148.328L130.924 152H140.788L144.496 148.256V144.944H139.744V146.708L138.484 147.968H133.3L132.04 146.708V139.364L133.3 138.104H138.484L139.744 139.364V141.128H144.496V137.816L140.788 134.072H130.924L127.288 137.744ZM147.363 137.816V148.256L151.07 152H161.367L165.074 148.256V137.816L161.367 134.072H151.07L147.363 137.816ZM173.419 134.072H169.027V152H173.779V141.56L177.199 138.104H180.223L181.447 139.364V152H186.199V138.068L182.203 134.072H176.407L173.419 137.06V134.072ZM191.6 138.068V148.328L195.308 152H201.824V147.968H197.576L196.352 146.78V138.104H201.824V134.072H196.352V128.24H191.672V134.072H188.36V138.068H191.6ZM209.279 134.072H204.887V152H209.639V141.704L213.131 138.104H217.271V134.072H212.159L209.279 137.06V134.072ZM218.343 137.816V148.256L222.051 152H232.347L236.055 148.256V137.816L232.347 134.072H222.051L218.343 137.816ZM244.94 126.296H240.188V152H244.94V126.296Z" fill="url(#paint17_linear_14_431)" fill-opacity="0.15"/>
<path d="M64.4182 147.968L67.3342 144.98V140.3L64.8862 138.104H60.4942L59.1262 139.508V146.564L60.4942 147.968H64.4182Z" fill="url(#paint18_linear_14_431)" fill-opacity="0.15"/>
<path d="M159.062 148.04L160.322 146.78V139.292L159.062 138.032H153.374L152.115 139.292V146.78L153.374 148.04H159.062Z" fill="url(#paint19_linear_14_431)" fill-opacity="0.15"/>
<path d="M230.043 148.04L231.303 146.78V139.292L230.043 138.032H224.355L223.095 139.292V146.78L224.355 148.04H230.043Z" fill="url(#paint20_linear_14_431)" fill-opacity="0.15"/>
<path d="M88.8465 141.308V139.22L87.6225 137.96H82.0065L80.7825 139.22V141.308H88.8465Z" fill="url(#paint21_linear_14_431)" fill-opacity="0.15"/>
<defs>
<linearGradient id="paint0_linear_14_431" x1="108.609" y1="71.25" x2="160.819" y2="39.6852" gradientUnits="userSpaceOnUse">
<stop stop-color="#FF4848"/>
<stop offset="1" stop-color="#2F44FF"/>
</linearGradient>
<linearGradient id="paint1_linear_14_431" x1="108.609" y1="71.25" x2="160.819" y2="39.6852" gradientUnits="userSpaceOnUse">
<stop stop-color="#FF4848"/>
<stop offset="1" stop-color="#2F44FF"/>
</linearGradient>
<linearGradient id="paint2_linear_14_431" x1="108.609" y1="71.25" x2="160.819" y2="39.6852" gradientUnits="userSpaceOnUse">
<stop stop-color="#FF4848"/>
<stop offset="1" stop-color="#2F44FF"/>
</linearGradient>
<linearGradient id="paint3_linear_14_431" x1="13.7897" y1="148.266" x2="56.46" y2="47.7562" gradientUnits="userSpaceOnUse">
<stop stop-color="#FF4848"/>
<stop offset="1" stop-color="#2F44FF"/>
</linearGradient>
<linearGradient id="paint4_linear_14_431" x1="13.7897" y1="148.266" x2="56.46" y2="47.7562" gradientUnits="userSpaceOnUse">
<stop stop-color="#FF4848"/>
<stop offset="1" stop-color="#2F44FF"/>
</linearGradient>
<linearGradient id="paint5_linear_14_431" x1="13.7897" y1="148.266" x2="56.46" y2="47.7562" gradientUnits="userSpaceOnUse">
<stop stop-color="#FF4848"/>
<stop offset="1" stop-color="#2F44FF"/>
</linearGradient>
<linearGradient id="paint6_linear_14_431" x1="13.7897" y1="148.266" x2="56.46" y2="47.7562" gradientUnits="userSpaceOnUse">
<stop stop-color="#FF4848"/>
<stop offset="1" stop-color="#2F44FF"/>
</linearGradient>
<linearGradient id="paint7_linear_14_431" x1="13.7897" y1="148.266" x2="56.46" y2="47.7562" gradientUnits="userSpaceOnUse">
<stop stop-color="#FF4848"/>
<stop offset="1" stop-color="#2F44FF"/>
</linearGradient>
<linearGradient id="paint8_linear_14_431" x1="13.7897" y1="148.266" x2="56.46" y2="47.7562" gradientUnits="userSpaceOnUse">
<stop stop-color="#FF4848"/>
<stop offset="1" stop-color="#2F44FF"/>
</linearGradient>
<linearGradient id="paint9_linear_14_431" x1="13.7897" y1="148.266" x2="56.46" y2="47.7562" gradientUnits="userSpaceOnUse">
<stop stop-color="#FF4848"/>
<stop offset="1" stop-color="#2F44FF"/>
</linearGradient>
<linearGradient id="paint10_linear_14_431" x1="13.7897" y1="148.266" x2="56.46" y2="47.7562" gradientUnits="userSpaceOnUse">
<stop stop-color="#FF4848"/>
<stop offset="1" stop-color="#2F44FF"/>
</linearGradient>
<linearGradient id="paint11_linear_14_431" x1="13.7897" y1="148.266" x2="56.46" y2="47.7562" gradientUnits="userSpaceOnUse">
<stop stop-color="#FF4848"/>
<stop offset="1" stop-color="#2F44FF"/>
</linearGradient>
<linearGradient id="paint12_linear_14_431" x1="13.7897" y1="148.266" x2="56.46" y2="47.7562" gradientUnits="userSpaceOnUse">
<stop stop-color="#FF4848"/>
<stop offset="1" stop-color="#2F44FF"/>
</linearGradient>
<linearGradient id="paint13_linear_14_431" x1="13.7897" y1="148.266" x2="56.46" y2="47.7562" gradientUnits="userSpaceOnUse">
<stop stop-color="#FF4848"/>
<stop offset="1" stop-color="#2F44FF"/>
</linearGradient>
<linearGradient id="paint14_linear_14_431" x1="13.7897" y1="148.266" x2="56.46" y2="47.7562" gradientUnits="userSpaceOnUse">
<stop stop-color="#FF4848"/>
<stop offset="1" stop-color="#2F44FF"/>
</linearGradient>
<linearGradient id="paint15_linear_14_431" x1="13.7897" y1="148.266" x2="56.46" y2="47.7562" gradientUnits="userSpaceOnUse">
<stop stop-color="#FF4848"/>
<stop offset="1" stop-color="#2F44FF"/>
</linearGradient>
<linearGradient id="paint16_linear_14_431" x1="13.7897" y1="148.266" x2="56.46" y2="47.7562" gradientUnits="userSpaceOnUse">
<stop stop-color="#FF4848"/>
<stop offset="1" stop-color="#2F44FF"/>
</linearGradient>
<linearGradient id="paint17_linear_14_431" x1="13.7897" y1="148.266" x2="56.46" y2="47.7562" gradientUnits="userSpaceOnUse">
<stop stop-color="#FF4848"/>
<stop offset="1" stop-color="#2F44FF"/>
</linearGradient>
<linearGradient id="paint18_linear_14_431" x1="13.7897" y1="148.266" x2="56.46" y2="47.7562" gradientUnits="userSpaceOnUse">
<stop stop-color="#FF4848"/>
<stop offset="1" stop-color="#2F44FF"/>
</linearGradient>
<linearGradient id="paint19_linear_14_431" x1="13.7897" y1="148.266" x2="56.46" y2="47.7562" gradientUnits="userSpaceOnUse">
<stop stop-color="#FF4848"/>
<stop offset="1" stop-color="#2F44FF"/>
</linearGradient>
<linearGradient id="paint20_linear_14_431" x1="13.7897" y1="148.266" x2="56.46" y2="47.7562" gradientUnits="userSpaceOnUse">
<stop stop-color="#FF4848"/>
<stop offset="1" stop-color="#2F44FF"/>
</linearGradient>
<linearGradient id="paint21_linear_14_431" x1="13.7897" y1="148.266" x2="56.46" y2="47.7562" gradientUnits="userSpaceOnUse">
<stop stop-color="#FF4848"/>
<stop offset="1" stop-color="#2F44FF"/>
</linearGradient>
</defs>
</svg>
