<svg width="238" height="47" viewBox="0 0 238 47" fill="none" xmlns="http://www.w3.org/2000/svg">
<path d="M1.98 32.2199V18.0719H6.732V30.7439L7.956 31.9679H10.836L14.364 28.4399V18.0719H19.116V35.9999H14.724V32.9399L11.628 35.9999H5.76L1.98 32.2199Z" fill="black"/>
<path d="M23.4295 18.0719H27.8215V21.0599L30.8095 18.0719H36.6055L40.6015 22.0679V35.9999H35.8495V23.3639L34.6255 22.1039H31.6015L28.1815 25.5599V35.9999H23.4295V18.0719Z" fill="black"/>
<path d="M44.3742 32.2559V21.8159L48.0822 18.0719H55.2102L57.3342 19.9079V10.2959H62.0862V35.9999H57.6222V33.2279L54.8502 35.9999H48.0822L44.3742 32.2559ZM54.4182 31.9679L57.3342 28.9799V24.2999L54.8862 22.1039H50.4942L49.1262 23.5079V30.5639L50.4942 31.9679H54.4182Z" fill="black"/>
<path d="M66.0305 32.3279V21.8159L69.7385 18.0719H79.8545L83.5985 21.8159V28.6199H70.7825V30.9239L71.9345 32.1119H77.8025L78.8825 30.9959V30.0599H83.5625V32.3999L79.9985 35.9999H69.6665L66.0305 32.3279ZM78.8465 25.3079V23.2199L77.6225 21.9599H72.0065L70.7825 23.2199V25.3079H78.8465Z" fill="black"/>
<path d="M87.3787 18.0719H91.7707V21.0599L94.6507 18.0719H99.7627V22.1039H95.6227L92.1307 25.7039V35.9999H87.3787V18.0719Z" fill="black"/>
<path d="M101.389 24.6959H114.061V28.7999H101.389V24.6959Z" fill="black"/>
<path d="M117.288 32.3279V21.7439L120.924 18.0719H130.788L134.496 21.8159V25.1279H129.744V23.3639L128.484 22.1039H123.3L122.04 23.3639V30.7079L123.3 31.9679H128.484L129.744 30.7079V28.9439H134.496V32.2559L130.788 35.9999H120.924L117.288 32.3279Z" fill="black"/>
<path d="M137.363 32.2559V21.8159L141.07 18.0719H151.367L155.074 21.8159V32.2559L151.367 35.9999H141.07L137.363 32.2559ZM149.062 32.0399L150.322 30.7799V23.2919L149.062 22.0319H143.374L142.115 23.2919V30.7799L143.374 32.0399H149.062Z" fill="black"/>
<path d="M159.027 18.0719H163.419V21.0599L166.407 18.0719H172.203L176.199 22.0679V35.9999H171.447V23.3639L170.223 22.1039H167.199L163.779 25.5599V35.9999H159.027V18.0719Z" fill="black"/>
<path d="M181.6 32.3279V22.0679H178.36V18.0719H181.672V12.2399H186.352V18.0719H191.824V22.1039H186.352V30.7799L187.576 31.9679H191.824V35.9999H185.308L181.6 32.3279Z" fill="black"/>
<path d="M194.887 18.0719H199.279V21.0599L202.159 18.0719H207.271V22.1039H203.131L199.639 25.7039V35.9999H194.887V18.0719Z" fill="black"/>
<path d="M208.343 32.2559V21.8159L212.051 18.0719H222.347L226.055 21.8159V32.2559L222.347 35.9999H212.051L208.343 32.2559ZM220.043 32.0399L221.303 30.7799V23.2919L220.043 22.0319H214.355L213.095 23.2919V30.7799L214.355 32.0399H220.043Z" fill="black"/>
<path d="M230.188 10.2959H234.94V35.9999H230.188V10.2959Z" fill="black"/>
</svg>
