<svg width="290" height="48" viewBox="0 0 290 48" fill="none" xmlns="http://www.w3.org/2000/svg">
<path d="M42 39V44H11L6 39V16L11 11H20V16H14L11 19V36L14 39H42Z" fill="black"/>
<path d="M34 16V11H42V16H34Z" fill="black"/>
<path d="M32.7628 8.81497L31.2852 10.2266V30.7734L32.7628 32.185H37V37H30.4664L28.5 35.0785L26.5336 37H20V32.185H24.2372L25.7148 30.7734V10.2266L24.2372 8.81497H20V4H26.5336L28.5 5.92146L30.4664 4H37V8.81497H32.7628Z" fill="black"/>
<path d="M136.379 18.072H140.771V21.06L143.651 18.072H148.763V22.104H144.623L141.131 25.704V36H136.379V18.072Z" fill="black"/>
<path fill-rule="evenodd" clip-rule="evenodd" d="M115.03 32.328V21.816L118.738 18.072H128.854L132.598 21.816V28.62H119.782V30.924L120.934 32.112H126.802L127.882 30.996V30.06H132.562V32.4L128.998 36H118.666L115.03 32.328ZM127.846 23.22V25.308H119.782V23.22L121.006 21.96H126.622L127.846 23.22Z" fill="black"/>
<path fill-rule="evenodd" clip-rule="evenodd" d="M93.3742 32.256V21.816L97.0822 18.072H104.21L106.334 19.908V10.296H111.086V36H106.622V33.228L103.85 36H97.0822L93.3742 32.256ZM106.334 28.98L103.418 31.968H99.4942L98.1262 30.564V23.508L99.4942 22.104H103.886L106.334 24.3V28.98Z" fill="black"/>
<path d="M72.4295 18.072H76.8215V21.06L79.8095 18.072H85.6055L89.6015 22.068V36H84.8495V23.364L83.6255 22.104H80.6015L77.1815 25.56V36H72.4295V18.072Z" fill="black"/>
<path d="M50.98 32.22V18.072H55.732V30.744L56.956 31.968H59.836L63.364 28.44V18.072H68.116V36H63.724V32.94L60.628 36H54.76L50.98 32.22Z" fill="black"/>
<path d="M208.027 18.072H212.419V21.06L215.407 18.072H221.203L225.199 22.068V36H220.447V23.364L219.223 22.104H216.199L212.779 25.56V36H208.027V18.072Z" fill="black"/>
<path fill-rule="evenodd" clip-rule="evenodd" d="M186.363 32.256V21.816L190.07 18.072H200.367L204.074 21.816V32.256L200.367 36H190.07L186.363 32.256ZM199.322 30.78L198.062 32.04H192.374L191.115 30.78V23.292L192.374 22.032H198.062L199.322 23.292V30.78Z" fill="black"/>
<path d="M166.288 32.328V21.744L169.924 18.072H179.788L183.496 21.816V25.128H178.744V23.364L177.484 22.104H172.3L171.04 23.364V30.708L172.3 31.968H177.484L178.744 30.708V28.944H183.496V32.256L179.788 36H169.924L166.288 32.328Z" fill="black"/>
<path d="M150.389 24.696H163.061V28.8H150.389V24.696Z" fill="black"/>
<path d="M230.6 32.328V22.068H227.36V18.072H230.672V12.24H235.352V18.072H240.824V22.104H235.352V30.78L236.576 31.968H240.824V36H234.308L230.6 32.328Z" fill="black"/>
<path d="M279.188 10.296H283.94V36H279.188V10.296Z" fill="black"/>
<path fill-rule="evenodd" clip-rule="evenodd" d="M257.343 32.256V21.816L261.051 18.072H271.347L275.055 21.816V32.256L271.347 36H261.051L257.343 32.256ZM270.303 30.78L269.043 32.04H263.355L262.095 30.78V23.292L263.355 22.032H269.043L270.303 23.292V30.78Z" fill="black"/>
<path d="M243.887 18.072H248.279V21.06L251.159 18.072H256.271V22.104H252.131L248.639 25.704V36H243.887V18.072Z" fill="black"/>
</svg>
